# Blender v3.1.2 OBJ File: ''
# www.blender.org
o m_wall_s_short
v 0.000000 0.000000 -0.000000
v 0.400000 0.000000 -0.000000
v 0.000000 2.000000 -0.000000
v 2.400000 0.000000 -0.100000
v 0.400000 0.000000 -0.100000
v 0.400000 2.000000 -0.000000
v 2.400000 2.000000 -0.100000
v 0.400000 2.000000 -0.100000
v 1.400000 0.000000 -0.100000
v 1.400000 2.000000 -0.100000
v 1.550000 0.149426 -0.100000
v 2.250000 0.149426 -0.100000
v 2.250000 1.850574 -0.100000
v 1.550000 1.850574 -0.100000
v 0.550000 0.149426 -0.100000
v 1.250000 0.149426 -0.100000
v 1.250000 1.850574 -0.100000
v 0.550000 1.850574 -0.100000
v 1.550000 0.149426 -0.020000
v 2.250000 0.149426 -0.020000
v 2.250000 1.850574 -0.020000
v 1.550000 1.850574 -0.020000
v 0.550000 0.149426 -0.020000
v 1.250000 0.149426 -0.020000
v 1.250000 1.850574 -0.020000
v 0.550000 1.850574 -0.020000
v 1.650000 0.250599 -0.020000
v 2.150000 0.250599 -0.020000
v 2.150000 1.749401 -0.020000
v 1.650000 1.749401 -0.020000
v 0.650000 0.250599 -0.020000
v 1.150000 0.250599 -0.020000
v 1.150000 1.749401 -0.020000
v 0.650000 1.749401 -0.020000
v 1.650000 0.250599 -0.090000
v 2.150000 0.250599 -0.090000
v 2.150000 1.749401 -0.090000
v 1.650000 1.749401 -0.090000
v 0.650000 0.250599 -0.090000
v 1.150000 0.250599 -0.090000
v 1.150000 1.749401 -0.090000
v 0.650000 1.749401 -0.090000
v 4.800000 0.000000 -0.000000
v 4.400000 0.000000 -0.000000
v 4.800000 2.000000 -0.000000
v 4.400000 0.000000 -0.100000
v 4.400000 2.000000 -0.000000
v 4.400000 2.000000 -0.100000
v 3.400000 0.000000 -0.100000
v 3.400000 2.000000 -0.100000
v 3.250000 0.149426 -0.100000
v 2.550000 0.149426 -0.100000
v 2.550000 1.850574 -0.100000
v 3.250000 1.850574 -0.100000
v 4.250000 0.149426 -0.100000
v 3.550000 0.149426 -0.100000
v 3.550000 1.850574 -0.100000
v 4.250000 1.850574 -0.100000
v 3.250000 0.149426 -0.020000
v 2.550000 0.149426 -0.020000
v 2.550000 1.850574 -0.020000
v 3.250000 1.850574 -0.020000
v 4.250000 0.149426 -0.020000
v 3.550000 0.149426 -0.020000
v 3.550000 1.850574 -0.020000
v 4.250000 1.850574 -0.020000
v 3.150000 0.250599 -0.020000
v 2.650000 0.250599 -0.020000
v 2.650000 1.749401 -0.020000
v 3.150000 1.749401 -0.020000
v 4.150000 0.250599 -0.020000
v 3.650000 0.250599 -0.020000
v 3.650000 1.749401 -0.020000
v 4.150000 1.749401 -0.020000
v 3.150000 0.250599 -0.090000
v 2.650000 0.250599 -0.090000
v 2.650000 1.749401 -0.090000
v 3.150000 1.749401 -0.090000
v 4.150000 0.250599 -0.090000
v 3.650000 0.250599 -0.090000
v 3.650000 1.749401 -0.090000
v 4.150000 1.749401 -0.090000
v 4.800000 2.000000 -0.400000
v 4.400000 2.000000 -0.400000
v 0.000000 2.000000 -0.400000
v 0.400000 2.000000 -0.400000
v 3.400000 2.000000 -0.400000
v 2.400000 2.000000 -0.400000
v 1.400000 2.000000 -0.400000
v 0.000000 2.000000 -0.200000
v 0.400000 2.000000 -0.200000
v 0.000000 4.000000 -0.200000
v 2.400000 2.000000 -0.300000
v 0.400000 2.000000 -0.300000
v 0.400000 4.000000 -0.200000
v 2.400000 4.000000 -0.300000
v 0.400000 4.000000 -0.300000
v 1.400000 2.000000 -0.300000
v 1.400000 4.000000 -0.300000
v 1.550000 2.149426 -0.300000
v 2.250000 2.149426 -0.300000
v 2.250000 3.850574 -0.300000
v 1.550000 3.850574 -0.300000
v 0.550000 2.149426 -0.300000
v 1.250000 2.149426 -0.300000
v 1.250000 3.850574 -0.300000
v 0.550000 3.850574 -0.300000
v 1.550000 2.149426 -0.220000
v 2.250000 2.149426 -0.220000
v 2.250000 3.850574 -0.220000
v 1.550000 3.850574 -0.220000
v 0.550000 2.149426 -0.220000
v 1.250000 2.149426 -0.220000
v 1.250000 3.850574 -0.220000
v 0.550000 3.850574 -0.220000
v 1.650000 2.250599 -0.220000
v 2.150000 2.250599 -0.220000
v 2.150000 3.749401 -0.220000
v 1.650000 3.749401 -0.220000
v 0.650000 2.250599 -0.220000
v 1.150000 2.250599 -0.220000
v 1.150000 3.749401 -0.220000
v 0.650000 3.749401 -0.220000
v 1.650000 2.250599 -0.290000
v 2.150000 2.250599 -0.290000
v 2.150000 3.749401 -0.290000
v 1.650000 3.749401 -0.290000
v 0.650000 2.250599 -0.290000
v 1.150000 2.250599 -0.290000
v 1.150000 3.749401 -0.290000
v 0.650000 3.749401 -0.290000
v 4.800000 2.000000 -0.200000
v 4.400000 2.000000 -0.200000
v 4.800000 4.000000 -0.200000
v 4.400000 2.000000 -0.300000
v 4.400000 4.000000 -0.200000
v 4.400000 4.000000 -0.300000
v 3.400000 2.000000 -0.300000
v 3.400000 4.000000 -0.300000
v 3.250000 2.149426 -0.300000
v 2.550000 2.149426 -0.300000
v 2.550000 3.850574 -0.300000
v 3.250000 3.850574 -0.300000
v 4.250000 2.149426 -0.300000
v 3.550000 2.149426 -0.300000
v 3.550000 3.850574 -0.300000
v 4.250000 3.850574 -0.300000
v 3.250000 2.149426 -0.220000
v 2.550000 2.149426 -0.220000
v 2.550000 3.850574 -0.220000
v 3.250000 3.850574 -0.220000
v 4.250000 2.149426 -0.220000
v 3.550000 2.149426 -0.220000
v 3.550000 3.850574 -0.220000
v 4.250000 3.850574 -0.220000
v 3.150000 2.250599 -0.220000
v 2.650000 2.250599 -0.220000
v 2.650000 3.749401 -0.220000
v 3.150000 3.749401 -0.220000
v 4.150000 2.250599 -0.220000
v 3.650000 2.250599 -0.220000
v 3.650000 3.749401 -0.220000
v 4.150000 3.749401 -0.220000
v 3.150000 2.250599 -0.290000
v 2.650000 2.250599 -0.290000
v 2.650000 3.749401 -0.290000
v 3.150000 3.749401 -0.290000
v 4.150000 2.250599 -0.290000
v 3.650000 2.250599 -0.290000
v 3.650000 3.749401 -0.290000
v 4.150000 3.749401 -0.290000
v 4.800000 4.000000 -0.600000
v 4.400000 4.000000 -0.500000
v 0.000000 4.000000 -0.600000
v 0.400000 4.000000 -0.500000
v 3.400000 4.000000 -0.500000
v 2.400000 4.000000 -0.500000
v 1.400000 4.000000 -0.500000
v 0.400000 4.000000 -0.600000
v 4.400000 4.000000 -0.600000
vt 0.632011 0.824846
vt 0.563192 0.821140
vt 0.564593 0.626821
vt 0.633718 0.630422
vt 0.919817 0.897029
vt 0.897158 0.896753
vt 0.905097 0.546230
vt 0.922152 0.559511
vt 0.992662 0.896178
vt 0.988408 0.531952
vt 0.831204 0.825918
vt 0.761948 0.821472
vt 0.763463 0.623032
vt 0.836467 0.625740
vt 0.697978 0.893915
vt 0.499951 0.893899
vt 0.525049 0.869109
vt 0.674357 0.867218
vt 0.498439 0.557815
vt 0.522137 0.584449
vt 0.697287 0.557145
vt 0.672027 0.582152
vt 0.723241 0.869353
vt 0.873680 0.869338
vt 0.719831 0.580050
vt 0.877339 0.573646
vt 0.536798 0.850704
vt 0.658598 0.853913
vt 0.537930 0.597744
vt 0.660220 0.600686
vt 0.735157 0.851009
vt 0.857827 0.855663
vt 0.736008 0.593448
vt 0.864672 0.593794
vt 0.554359 0.834172
vt 0.643746 0.834672
vt 0.552833 0.616987
vt 0.642583 0.617312
vt 0.752949 0.834500
vt 0.843017 0.835990
vt 0.751376 0.612937
vt 0.845874 0.611668
vt 0.366833 0.825796
vt 0.364257 0.630248
vt 0.433040 0.626522
vt 0.435946 0.821480
vt 0.077707 0.901833
vt 0.071727 0.560938
vt 0.088884 0.547475
vt 0.100600 0.901300
vt 0.003813 0.901833
vt 0.003814 0.532367
vt 0.166395 0.829246
vt 0.159201 0.627600
vt 0.233533 0.624265
vt 0.236023 0.824099
vt 0.300691 0.896088
vt 0.324398 0.868850
vt 0.474589 0.869297
vt 0.475104 0.584248
vt 0.325672 0.582010
vt 0.300284 0.556893
vt 0.124009 0.873392
vt 0.275214 0.871770
vt 0.277485 0.580305
vt 0.117329 0.575047
vt 0.340211 0.855302
vt 0.462660 0.850927
vt 0.459457 0.597514
vt 0.337578 0.600560
vt 0.139859 0.859460
vt 0.263129 0.853509
vt 0.261168 0.594022
vt 0.130348 0.595399
vt 0.355067 0.835775
vt 0.444912 0.834490
vt 0.444722 0.616690
vt 0.355314 0.617175
vt 0.154591 0.839497
vt 0.245153 0.837098
vt 0.245705 0.613920
vt 0.149558 0.613370
vt 0.028746 0.462989
vt 0.101108 0.484704
vt 0.965108 0.465188
vt 0.895062 0.485008
vt 0.302417 0.500913
vt 0.497898 0.499016
vt 0.695343 0.497076
vt 0.634267 0.378293
vt 0.565255 0.374563
vt 0.567004 0.180679
vt 0.635795 0.183897
vt 0.923130 0.450876
vt 0.900310 0.450538
vt 0.908672 0.096057
vt 0.925995 0.110315
vt 0.996157 0.450465
vt 0.994102 0.085333
vt 0.833961 0.379305
vt 0.764488 0.374872
vt 0.765662 0.175419
vt 0.839276 0.177520
vt 0.700415 0.447534
vt 0.501854 0.447419
vt 0.527039 0.422604
vt 0.676711 0.420763
vt 0.501446 0.112762
vt 0.524853 0.138856
vt 0.699230 0.110154
vt 0.673993 0.135445
vt 0.725715 0.422912
vt 0.876707 0.422939
vt 0.721786 0.132695
vt 0.880520 0.124354
vt 0.538816 0.404164
vt 0.660913 0.407427
vt 0.540516 0.151957
vt 0.662226 0.154061
vt 0.737642 0.404515
vt 0.860750 0.409192
vt 0.738027 0.145979
vt 0.867738 0.144948
vt 0.556408 0.387622
vt 0.646023 0.388141
vt 0.555314 0.170952
vt 0.644629 0.170770
vt 0.755470 0.387943
vt 0.845851 0.389417
vt 0.753501 0.165357
vt 0.848751 0.163204
vt 0.368812 0.378390
vt 0.367760 0.182858
vt 0.436198 0.179960
vt 0.438162 0.374495
vt 0.077964 0.453035
vt 0.073558 0.108476
vt 0.091092 0.094064
vt 0.101058 0.452580
vt 0.003827 0.453035
vt 0.003828 0.082348
vt 0.167772 0.380500
vt 0.161817 0.176991
vt 0.236942 0.174865
vt 0.237692 0.375821
vt 0.301984 0.448468
vt 0.325975 0.421286
vt 0.476566 0.422635
vt 0.478230 0.138514
vt 0.329628 0.134213
vt 0.304452 0.108665
vt 0.124792 0.424614
vt 0.276633 0.423924
vt 0.281476 0.131493
vt 0.119839 0.122875
vt 0.341924 0.407802
vt 0.464729 0.404153
vt 0.462627 0.151484
vt 0.341363 0.152911
vt 0.140852 0.410703
vt 0.264659 0.405528
vt 0.264992 0.144969
vt 0.132866 0.143847
vt 0.356955 0.388318
vt 0.447057 0.387591
vt 0.447873 0.170316
vt 0.358940 0.169717
vt 0.155815 0.390721
vt 0.246754 0.388929
vt 0.249269 0.164636
vt 0.152185 0.162402
vt 0.032375 0.004909
vt 0.102677 0.052816
vt 0.966877 0.010031
vt 0.898382 0.056081
vt 0.306407 0.071446
vt 0.501277 0.074111
vt 0.697528 0.069953
vt 0.891576 0.037256
vt 0.109814 0.033457
vn 0.0000 0.0000 1.0000
vn 1.0000 0.0000 0.0000
vn 0.0000 -1.0000 0.0000
vn 0.0000 1.0000 0.0000
vn -1.0000 0.0000 0.0000
s off
f 35/1/1 36/2/1 37/3/1 38/4/1
f 2/5/2 5/6/2 8/7/2 6/8/2
f 1/9/1 2/5/1 6/8/1 3/10/1
f 39/11/1 40/12/1 41/13/1 42/14/1
f 9/15/1 4/16/1 12/17/1 11/18/1
f 4/16/1 7/19/1 13/20/1 12/17/1
f 7/19/1 10/21/1 14/22/1 13/20/1
f 10/21/1 9/15/1 11/18/1 14/22/1
f 5/6/1 9/15/1 16/23/1 15/24/1
f 9/15/1 10/21/1 17/25/1 16/23/1
f 10/21/1 8/7/1 18/26/1 17/25/1
f 8/7/1 5/6/1 15/24/1 18/26/1
f 11/18/3 12/17/3 20/27/3 19/28/3
f 12/17/2 13/20/2 21/29/2 20/27/2
f 13/20/4 14/22/4 22/30/4 21/29/4
f 14/22/5 11/18/5 19/28/5 22/30/5
f 15/24/3 16/23/3 24/31/3 23/32/3
f 16/23/2 17/25/2 25/33/2 24/31/2
f 17/25/4 18/26/4 26/34/4 25/33/4
f 18/26/5 15/24/5 23/32/5 26/34/5
f 19/28/1 20/27/1 28/35/1 27/36/1
f 20/27/1 21/29/1 29/37/1 28/35/1
f 21/29/1 22/30/1 30/38/1 29/37/1
f 22/30/1 19/28/1 27/36/1 30/38/1
f 23/32/1 24/31/1 32/39/1 31/40/1
f 24/31/1 25/33/1 33/41/1 32/39/1
f 25/33/1 26/34/1 34/42/1 33/41/1
f 26/34/1 23/32/1 31/40/1 34/42/1
f 27/36/4 28/35/4 36/2/4 35/1/4
f 28/35/5 29/37/5 37/3/5 36/2/5
f 29/37/3 30/38/3 38/4/3 37/3/3
f 30/38/2 27/36/2 35/1/2 38/4/2
f 31/40/4 32/39/4 40/12/4 39/11/4
f 32/39/5 33/41/5 41/13/5 40/12/5
f 33/41/3 34/42/3 42/14/3 41/13/3
f 34/42/2 31/40/2 39/11/2 42/14/2
f 75/43/1 78/44/1 77/45/1 76/46/1
f 44/47/5 47/48/5 48/49/5 46/50/5
f 43/51/1 45/52/1 47/48/1 44/47/1
f 79/53/1 82/54/1 81/55/1 80/56/1
f 49/57/1 51/58/1 52/59/1 4/16/1
f 4/16/1 52/59/1 53/60/1 7/19/1
f 7/19/1 53/60/1 54/61/1 50/62/1
f 50/62/1 54/61/1 51/58/1 49/57/1
f 46/50/1 55/63/1 56/64/1 49/57/1
f 49/57/1 56/64/1 57/65/1 50/62/1
f 50/62/1 57/65/1 58/66/1 48/49/1
f 48/49/1 58/66/1 55/63/1 46/50/1
f 51/58/3 59/67/3 60/68/3 52/59/3
f 52/59/5 60/68/5 61/69/5 53/60/5
f 53/60/4 61/69/4 62/70/4 54/61/4
f 54/61/2 62/70/2 59/67/2 51/58/2
f 55/63/3 63/71/3 64/72/3 56/64/3
f 56/64/5 64/72/5 65/73/5 57/65/5
f 57/65/4 65/73/4 66/74/4 58/66/4
f 58/66/2 66/74/2 63/71/2 55/63/2
f 59/67/1 67/75/1 68/76/1 60/68/1
f 60/68/1 68/76/1 69/77/1 61/69/1
f 61/69/1 69/77/1 70/78/1 62/70/1
f 62/70/1 70/78/1 67/75/1 59/67/1
f 63/71/1 71/79/1 72/80/1 64/72/1
f 64/72/1 72/80/1 73/81/1 65/73/1
f 65/73/1 73/81/1 74/82/1 66/74/1
f 66/74/1 74/82/1 71/79/1 63/71/1
f 67/75/4 75/43/4 76/46/4 68/76/4
f 68/76/2 76/46/2 77/45/2 69/77/2
f 69/77/3 77/45/3 78/44/3 70/78/3
f 70/78/5 78/44/5 75/43/5 67/75/5
f 71/79/4 79/53/4 80/56/4 72/80/4
f 72/80/2 80/56/2 81/55/2 73/81/2
f 73/81/3 81/55/3 82/54/3 74/82/3
f 74/82/5 82/54/5 79/53/5 71/79/5
f 47/48/4 45/52/4 48/49/4
f 83/83/4 84/84/4 48/49/4 45/52/4
f 6/8/4 8/7/4 3/10/4
f 85/85/4 3/10/4 8/7/4 86/86/4
f 50/62/4 48/49/4 84/84/4 87/87/4
f 7/19/4 50/62/4 87/87/4 88/88/4
f 8/7/4 10/21/4 89/89/4 86/86/4
f 10/21/4 7/19/4 88/88/4 89/89/4
f 124/90/1 125/91/1 126/92/1 127/93/1
f 91/94/2 94/95/2 97/96/2 95/97/2
f 90/98/1 91/94/1 95/97/1 92/99/1
f 128/100/1 129/101/1 130/102/1 131/103/1
f 98/104/1 93/105/1 101/106/1 100/107/1
f 93/105/1 96/108/1 102/109/1 101/106/1
f 96/108/1 99/110/1 103/111/1 102/109/1
f 99/110/1 98/104/1 100/107/1 103/111/1
f 94/95/1 98/104/1 105/112/1 104/113/1
f 98/104/1 99/110/1 106/114/1 105/112/1
f 99/110/1 97/96/1 107/115/1 106/114/1
f 97/96/1 94/95/1 104/113/1 107/115/1
f 100/107/3 101/106/3 109/116/3 108/117/3
f 101/106/2 102/109/2 110/118/2 109/116/2
f 102/109/4 103/111/4 111/119/4 110/118/4
f 103/111/5 100/107/5 108/117/5 111/119/5
f 104/113/3 105/112/3 113/120/3 112/121/3
f 105/112/2 106/114/2 114/122/2 113/120/2
f 106/114/4 107/115/4 115/123/4 114/122/4
f 107/115/5 104/113/5 112/121/5 115/123/5
f 108/117/1 109/116/1 117/124/1 116/125/1
f 109/116/1 110/118/1 118/126/1 117/124/1
f 110/118/1 111/119/1 119/127/1 118/126/1
f 111/119/1 108/117/1 116/125/1 119/127/1
f 112/121/1 113/120/1 121/128/1 120/129/1
f 113/120/1 114/122/1 122/130/1 121/128/1
f 114/122/1 115/123/1 123/131/1 122/130/1
f 115/123/1 112/121/1 120/129/1 123/131/1
f 116/125/4 117/124/4 125/91/4 124/90/4
f 117/124/5 118/126/5 126/92/5 125/91/5
f 118/126/3 119/127/3 127/93/3 126/92/3
f 119/127/2 116/125/2 124/90/2 127/93/2
f 120/129/4 121/128/4 129/101/4 128/100/4
f 121/128/5 122/130/5 130/102/5 129/101/5
f 122/130/3 123/131/3 131/103/3 130/102/3
f 123/131/2 120/129/2 128/100/2 131/103/2
f 164/132/1 167/133/1 166/134/1 165/135/1
f 133/136/5 136/137/5 137/138/5 135/139/5
f 132/140/1 134/141/1 136/137/1 133/136/1
f 168/142/1 171/143/1 170/144/1 169/145/1
f 138/146/1 140/147/1 141/148/1 93/105/1
f 93/105/1 141/148/1 142/149/1 96/108/1
f 96/108/1 142/149/1 143/150/1 139/151/1
f 139/151/1 143/150/1 140/147/1 138/146/1
f 135/139/1 144/152/1 145/153/1 138/146/1
f 138/146/1 145/153/1 146/154/1 139/151/1
f 139/151/1 146/154/1 147/155/1 137/138/1
f 137/138/1 147/155/1 144/152/1 135/139/1
f 140/147/3 148/156/3 149/157/3 141/148/3
f 141/148/5 149/157/5 150/158/5 142/149/5
f 142/149/4 150/158/4 151/159/4 143/150/4
f 143/150/2 151/159/2 148/156/2 140/147/2
f 144/152/3 152/160/3 153/161/3 145/153/3
f 145/153/5 153/161/5 154/162/5 146/154/5
f 146/154/4 154/162/4 155/163/4 147/155/4
f 147/155/2 155/163/2 152/160/2 144/152/2
f 148/156/1 156/164/1 157/165/1 149/157/1
f 149/157/1 157/165/1 158/166/1 150/158/1
f 150/158/1 158/166/1 159/167/1 151/159/1
f 151/159/1 159/167/1 156/164/1 148/156/1
f 152/160/1 160/168/1 161/169/1 153/161/1
f 153/161/1 161/169/1 162/170/1 154/162/1
f 154/162/1 162/170/1 163/171/1 155/163/1
f 155/163/1 163/171/1 160/168/1 152/160/1
f 156/164/4 164/132/4 165/135/4 157/165/4
f 157/165/2 165/135/2 166/134/2 158/166/2
f 158/166/3 166/134/3 167/133/3 159/167/3
f 159/167/5 167/133/5 164/132/5 156/164/5
f 160/168/4 168/142/4 169/145/4 161/169/4
f 161/169/2 169/145/2 170/144/2 162/170/2
f 162/170/3 170/144/3 171/143/3 163/171/3
f 163/171/5 171/143/5 168/142/5 160/168/5
f 136/137/4 134/141/4 137/138/4
f 172/172/4 173/173/4 137/138/4 134/141/4
f 95/97/4 97/96/4 92/99/4
f 174/174/4 92/99/4 97/96/4 175/175/4
f 139/151/4 137/138/4 173/173/4 176/176/4
f 96/108/4 139/151/4 176/176/4 177/177/4
f 97/96/4 99/110/4 178/178/4 175/175/4
f 99/110/4 96/108/4 177/177/4 178/178/4
f 175/175/4 179/179/4 174/174/4
f 173/173/4 172/172/4 180/180/4
f 177/177/1 176/176/1 178/178/1
